#!OML:ASF G:\JayActor3\Patient Classification 1\Patient 1\Session 6\male.ASF
:FULLY-SPECIFIED
:DEGREES
1047
root 0.0213651 15.0298 -10.3156 361.869 -26.1549 -360.999
lowerback 23.2592 -2.82845 3.94141
upperback 11.901 -3.08109 3.0757
thorax 0.116905 -1.59697 1.75906
lowerneck 16.4511 -0.170787 3.52218
upperneck 2.37468 0.220486 -3.75348
head -2.08439 0.224243 -1.86579
rclavicle -5.52621e-014 6.12257e-014
rhumerus -30.1626 12.8709 -85.2938
rradius 119.713
rwrist 15.8427
rhand 13.9063 -16.2346
rfingers 7.12502
rthumb 38.8212 -41.8056
lclavicle -5.52621e-014 6.12257e-014
lhumerus -37.0496 -0.563911 85.2284
lradius 127.135
lwrist 5.61686
lhand 2.4013 38.1761
lfingers 7.12502
lthumb 27.8883 66.1256
rfemur -28.0958 -2.52654 26.3454
rtibia 64.56
rfoot -36.0025 -19.6095
rtoes -5.83967
lfemur -73.0194 18.4023 -27.6711
ltibia 90.1518
lfoot -18.3081 -1.46291
ltoes -21.6525
1048
root -0.054543 15.0258 -10.2 361.71 -26.0904 -361.266
lowerback 23.1227 -2.81811 3.90567
upperback 11.9008 -3.08306 3.10944
thorax 0.186154 -1.60049 1.80896
lowerneck 16.3979 -0.159404 3.46794
upperneck 2.34348 0.224527 -3.73955
head -2.08492 0.225306 -1.85127
rclavicle -1.31198e-014 -2.3059e-014
rhumerus -30.2649 12.9076 -85.32
rradius 119.688
rwrist 15.7424
rhand 14.0632 -16.2623
rfingers 7.12502
rthumb 38.9691 -41.7912
lclavicle -1.31198e-014 -2.3059e-014
lhumerus -37.1478 -0.554516 85.3427
lradius 127.16
lwrist 5.73154
lhand 2.50083 38.1817
lfingers 7.12502
lthumb 27.9835 66.1158
rfemur -26.9824 -2.53109 26.6742
rtibia 64.2234
rfoot -36.3734 -19.7554
rtoes -6.16133
lfemur -71.8941 18.2063 -27.5636
ltibia 87.2787
lfoot -18.3941 -1.08832
ltoes -21.8328
1049
root -0.130894 15.0244 -10.0822 361.566 -26.0239 -361.531
lowerback 22.9778 -2.81852 3.82293
upperback 11.8783 -3.10623 3.16438
thorax 0.238311 -1.61753 1.91297
lowerneck 16.3574 -0.114149 3.34887
upperneck 2.27242 0.26102 -3.72104
head -2.09966 0.242139 -1.82626
rclavicle 2.0276e-014 1.66979e-014
rhumerus -30.3693 13.0185 -85.3209
rradius 119.681
rwrist 15.6103
rhand 14.2079 -16.2987
rfingers 7.12502
rthumb 39.1056 -41.7884
lclavicle 2.0276e-014 1.66979e-014
lhumerus -37.276 -0.447697 85.4657
lradius 127.209
lwrist 5.82037
lhand 2.65613 38.1326
lfingers 7.12502
lthumb 28.1319 66.0424
rfemur -25.8489 -2.53865 26.9996
rtibia 63.8271
rfoot -36.7098 -19.9094
rtoes -6.51043
lfemur -70.6912 18.044 -27.4397
ltibia 84.3175
lfoot -18.4695 -0.744467
ltoes -21.8134
1050
root -0.207512 15.0254 -9.96212 361.431 -25.9642 -361.786
lowerback 22.8323 -2.82613 3.69117
upperback 11.8334 -3.14596 3.23517
thorax 0.269344 -1.64569 2.06572
lowerneck 16.3314 -0.0380414 3.17288
upperneck 2.17555 0.327659 -3.69717
head -2.12442 0.273642 -1.79165
rclavicle 2.34566e-014 -8.74653e-015
rhumerus -30.4778 13.1989 -85.2992
rradius 119.688
rwrist 15.4486
rhand 14.3368 -16.3453
rfingers 7.12502
rthumb 39.227 -41.7999
lclavicle 2.34566e-014 -8.74653e-015
lhumerus -37.4335 -0.249937 85.5892
lradius 127.272
lwrist 5.88663
lhand 2.87584 38.0115
lfingers 7.12502
lthumb 28.3419 65.8865
rfemur -24.6963 -2.54165 27.3142
rtibia 63.3784
rfoot -37.0091 -20.0623
rtoes -6.87432
lfemur -69.4166 17.9255 -27.3146
ltibia 81.2809
lfoot -18.5483 -0.37767
ltoes -21.7338
1051
root -0.283861 15.0291 -9.8397 361.31 -25.919 -362.039
lowerback 22.6778 -2.82807 3.55444
upperback 11.7693 -3.17819 3.30278
thorax 0.283865 -1.67003 2.21609
lowerneck 16.3082 0.0404363 2.99962
upperneck 2.06858 0.398192 -3.66512
head -2.15312 0.306974 -1.75531
rclavicle 1.55052e-014 7.15625e-015
rhumerus -30.5927 13.3695 -85.2797
rradius 119.699
rwrist 15.2874
rhand 14.4538 -16.3933
rfingers 7.12502
rthumb 39.3372 -41.8159
lclavicle 1.55052e-014 7.15625e-015
lhumerus -37.6026 -0.0395446 85.685
lradius 127.341
lwrist 5.95005
lhand 3.1284 37.8559
lfingers 7.12502
lthumb 28.5832 65.6905
rfemur -23.5319 -2.53816 27.6198
rtibia 62.882
rfoot -37.259 -20.2153
rtoes -7.27147
lfemur -68.0793 17.84 -27.1774
ltibia 78.1834
lfoot -18.6402 0.0221541
ltoes -21.6914
1052
root -0.359564 15.0349 -9.71487 361.207 -25.8899 -362.298
lowerback 22.5112 -2.81694 3.44114
upperback 11.6883 -3.18842 3.36063
thorax 0.284003 -1.68164 2.33769
lowerneck 16.2872 0.101522 2.86802
upperneck 1.95776 0.453692 -3.63333
head -2.18443 0.333221 -1.72573
rclavicle 9.14409e-015 7.79236e-014
rhumerus -30.7155 13.4866 -85.2707
rradius 119.709
rwrist 15.1414
rhand 14.5455 -16.4452
rfingers 7.12502
rthumb 39.4237 -41.8426
lclavicle 9.14409e-015 7.79236e-014
lhumerus -37.7722 0.13819 85.7516
lradius 127.409
lwrist 6.02433
lhand 3.38642 37.7013
lfingers 7.12502
lthumb 28.8297 65.4943
rfemur -22.3629 -2.5284 27.9223
rtibia 62.3464
rfoot -37.4529 -20.36
rtoes -7.70548
lfemur -66.6957 17.7894 -27.023
ltibia 75.0456
lfoot -18.7487 0.437106
ltoes -21.6663
1053
root -0.434602 15.0429 -9.58766 361.122 -25.8828 -362.565
lowerback 22.3293 -2.77837 3.38433
upperback 11.5865 -3.152 3.3887
thorax 0.26334 -1.66575 2.38515
lowerneck 16.2849 0.114701 2.84702
upperneck 1.85304 0.467028 -3.60704
head -2.21915 0.339403 -1.71537
rclavicle -9.93923e-015 4.09496e-014
rhumerus -30.8731 13.4722 -85.2985
rradius 119.719
rwrist 15.0301
rhand 14.6222 -16.4896
rfingers 7.12502
rthumb 39.4959 -41.8658
lclavicle -9.93923e-015 4.09496e-014
lhumerus -37.9419 0.204707 85.7615
lradius 127.461
lwrist 6.10912
lhand 3.6484 37.5362
lfingers 7.12502
lthumb 29.08 65.2862
rfemur -21.1914 -2.50585 28.2227
rtibia 61.7781
rfoot -37.5863 -20.4957
rtoes -8.1748
lfemur -65.2705 17.7662 -26.84
ltibia 71.8849
lfoot -18.8723 0.845697
ltoes -21.6993
